<?xml version="1.0" encoding="UTF-8"?>
<svg id="Layer_2" data-name="Layer 2" xmlns="http://www.w3.org/2000/svg" viewBox="0 0 292.68 235.27">
  <defs>
    <style>
      .cls-1 {
        fill: #feebb4;
      }

      .cls-1, .cls-2 {
        stroke-width: 0px;
      }

      .cls-2 {
        fill: #f4d15c;
      }
    </style>
  </defs>
  <circle class="cls-2" cx="146.97" cy="144.48" r="90.79"/>
  <path class="cls-2" d="m95.11,60.02c-18.66,11.35-33.26,28.7-41.11,49.38-1.82,4.75-3.27,9.69-4.32,14.77-1.2-.03-4.77-2.21-13.09-20.53-2.62-5.77-5.71-13.15-9.35-22.57-18.64-48.23,6.8-61.33,6.8-61.33,0,0,11.08-5.12,61.07,40.28Z"/>
  <path class="cls-2" d="m49.68,124.17c-1.38,6.55-2.1,13.35-2.1,20.31,0,2.99.13,5.94.4,8.86.27,3.17.7,6.29,1.28,9.36l-2.94,9.72s-1.39,4.37-23.1-18.29c-1.95-2.04-4.07-4.31-6.38-6.82-27.82-30.3-12.79-47.4-12.79-47.4,0,0,4.38-4.58,32.54,3.73,5.01,1.48,10.78,3.37,17.41,5.76-1.82,4.75-3.27,9.69-4.32,14.77Z"/>
  <path class="cls-2" d="m59.31,191.21c-1.05.74-5.88,1.57-27.68-3.6-29.06-6.91-26.98-23.31-26.98-23.31,0,0,.72-4.15,18.57-10.17,5.74-1.93,13.24-4.06,23.05-6.3l1.71,5.51c.27,3.17.7,6.29,1.28,9.36,1.88,10.13,5.32,19.72,10.05,28.51Z"/>
  <path class="cls-2" d="m197.57,60.02c18.66,11.35,33.26,28.7,41.11,49.38,1.82,4.75,3.27,9.69,4.32,14.77,1.2-.03,4.77-2.21,13.09-20.53,2.62-5.77,5.71-13.15,9.35-22.57,18.64-48.23-6.8-61.33-6.8-61.33,0,0-11.08-5.12-61.07,40.28Z"/>
  <path class="cls-2" d="m243,124.17c1.38,6.55,2.1,13.35,2.1,20.31,0,2.99-.13,5.94-.4,8.86-.27,3.17-.7,6.29-1.28,9.36l2.94,9.72s1.39,4.37,23.1-18.29c1.95-2.04,4.07-4.31,6.38-6.82,27.82-30.3,12.79-47.4,12.79-47.4,0,0-4.38-4.58-32.54,3.73-5.01,1.48-10.78,3.37-17.41,5.76,1.82,4.75,3.27,9.69,4.32,14.77Z"/>
  <path class="cls-2" d="m233.37,191.21c1.05.74,5.88,1.57,27.68-3.6,29.06-6.91,26.98-23.31,26.98-23.31,0,0-.72-4.15-18.57-10.17-5.74-1.93-13.24-4.06-23.05-6.3l-1.71,5.51c-.27,3.17-.7,6.29-1.28,9.36-1.88,10.13-5.32,19.72-10.05,28.51Z"/>
  <path class="cls-1" d="m231.31,144.48c0,35.95-22.49,66.64-54.16,78.77,18.42-16.49,30.01-40.45,30.01-67.12,0-49.75-40.33-90.08-90.08-90.08-.41,0-.82,0-1.22.02,9.63-3.83,20.12-5.93,31.11-5.93,46.58,0,84.34,37.76,84.34,84.34Z"/>
  <path class="cls-1" d="m262.55,74.79c-2.88,7.45-5.34,13.33-7.43,17.96.57-2.29,1.17-4.75,1.79-7.36,10.6-44.81-13.43-53.29-13.43-53.29,0,0-3.11-.95-12.24,5.72,20.54-15.26,25.79-12.84,25.79-12.84,0,0,20.66,10.64,5.52,49.81Z"/>
  <path class="cls-1" d="m275.23,141.71c-1.9,2.06-3.64,3.93-5.24,5.6-.43.45-.84.88-1.25,1.3,20.26-30.65,4.64-44.57,4.64-44.57,0,0-1.17-.96-5.54-.55,15.26-3.48,17.9-.72,17.9-.72,0,0,12.35,14.04-10.51,38.94Z"/>
  <path class="cls-1" d="m279.5,172.03c1.95-1.8,2.14-3.67,2.14-3.67,0,0,.09-1.75-6.6-5.86-1.84-1.13-4.19-2.43-7.19-3.93,3.75.87,6.63,1.69,8.86,2.44,7.13,2.41,7.42,4.06,7.42,4.06,0,0,.49,3.91-4.63,6.96Z"/>
  <path class="cls-1" d="m85.34,58.6c-2.22,1.35-4.36,2.8-6.42,4.36-37.94-34.19-46.4-30.28-46.4-30.28,0,0-.39.2-1.03.66,2.91-4.51,6.17-6.19,6.17-6.19,0,0,8.65-4,47.68,31.45Z"/>
  <path class="cls-1" d="m45.34,112.42c-.69,1.78-1.3,3.6-1.83,5.45-4.02-1.42-7.58-2.57-10.72-3.5-20.29-5.99-23.45-2.69-23.45-2.69,0,0-2.01,2.28-2.69,6.62-1.21-8.28,2.69-12.72,2.69-12.72,0,0,3.16-3.3,23.45,2.69,3.61,1.07,7.77,2.43,12.55,4.15Z"/>
</svg>