<?xml version="1.0" encoding="UTF-8"?>
<svg id="Layer_4" data-name="Layer 4" xmlns="http://www.w3.org/2000/svg" viewBox="0 0 368.02 279.81">
  <defs>
    <style>
      .cls-1 {
        fill: #b7dcf5;
      }

      .cls-1, .cls-2, .cls-3, .cls-4, .cls-5, .cls-6 {
        stroke-width: 0px;
      }

      .cls-2 {
        fill: #f8b4b4;
      }

      .cls-3 {
        fill: #6b3e98;
      }

      .cls-4 {
        fill: #ee2d24;
      }

      .cls-5 {
        fill: none;
      }

      .cls-6 {
        fill: #fff200;
      }
    </style>
  </defs>
  <path class="cls-6" d="m185.35,98.23c-50.14,0-90.79,40.65-90.79,90.79s40.65,90.79,90.79,90.79,90.79-40.65,90.79-90.79-40.65-90.79-90.79-90.79Zm0,173.67c-45.77,0-82.88-37.11-82.88-82.88s37.11-82.88,82.88-82.88,82.88,37.11,82.88,82.88-37.11,82.88-82.88,82.88Z"/>
  <circle class="cls-3" cx="185.35" cy="189.02" r="82.88"/>
  <path class="cls-6" d="m123.24,111.91v.03s-.02.01-.02.01c-10.71,8.48-19.59,19.15-26,31.34-6.79,12.91-10.8,27.5-11.22,42.99-.03.91-.04,1.82-.04,2.74,0,0-1.03-1.14-2.8-3.25-7.8-9.24-30.05-36.97-43.53-67.69-10.81-24.62-15.97-51.17-3.5-71.62,68.44,5.34,87.11,65.45,87.11,65.45Z"/>
  <path class="cls-6" d="m98.41,236.95c-4.52-2.34-38.93-20.58-65.81-46.46C12.33,170.98-3.65,147.12.73,122.47c14.26-4.31,27.27-5.37,38.9-4.39,27.42,2.32,47.18,16,57.59,25.21-6.79,12.91-10.8,27.5-11.22,42.99-.03.91-.04,1.82-.04,2.74,0,17.4,4.52,33.75,12.45,47.93Z"/>
  <path class="cls-6" d="m137.03,275.3c-9.13-.67-121.65-10.1-134.85-66.74,10.18-8.55,20.46-14.32,30.42-18.07,18.97-7.16,36.79-7,50.56-4.72.97.16,1.91.33,2.84.51-.03.91-.04,1.82-.04,2.74,0,17.4,4.52,33.75,12.45,47.93,9.01,16.12,22.43,29.45,38.62,38.35Z"/>
  <path class="cls-6" d="m244.78,111.91v.03s.02.01.02.01c10.71,8.48,19.59,19.15,26,31.34,6.79,12.91,10.8,27.5,11.22,42.99.03.91.04,1.82.04,2.74,0,0,1.03-1.14,2.8-3.25,7.8-9.24,30.05-36.97,43.53-67.69,10.81-24.62,15.97-51.17,3.5-71.62-68.44,5.34-87.11,65.45-87.11,65.45Z"/>
  <path class="cls-6" d="m269.61,236.95c4.52-2.34,38.93-20.58,65.81-46.46,20.27-19.51,36.25-43.37,31.87-68.02-14.26-4.31-27.27-5.37-38.9-4.39-27.42,2.32-47.18,16-57.59,25.21,6.79,12.91,10.8,27.5,11.22,42.99.03.91.04,1.82.04,2.74,0,17.4-4.52,33.75-12.45,47.93Z"/>
  <path class="cls-6" d="m230.99,275.3c9.13-.67,121.65-10.1,134.85-66.74-10.18-8.55-20.46-14.32-30.42-18.07-18.97-7.16-36.79-7-50.56-4.72-.97.16-1.91.33-2.84.51.03.91.04,1.82.04,2.74,0,17.4-4.52,33.75-12.45,47.93-9.01,16.12-22.43,29.45-38.62,38.35Z"/>
  <g>
    <path class="cls-6" d="m161.19,93.38c-6.76,1.63-13.25,3.96-19.39,6.91,0,0-.06-.17-.18-.47-.01-.05-.03-.09-.05-.14-.08-.23-.19-.53-.32-.88,5.79-7.62,12.81-17.5,19.52-28.63.24.11.37.18.37.18v.02s.01.02.01.02c-.88,7.64-.87,15.35.04,22.99Z"/>
    <path class="cls-6" d="m226.84,100.26h0c-6.33-3.03-13.02-5.4-20.01-7.03.89-7.59.9-15.25.02-22.84v-.04s.87-.45,2.48-1.17c6.36,10.64,13.05,20.19,18.73,27.77-.84,2.09-1.22,3.31-1.22,3.31Z"/>
    <path class="cls-6" d="m252.85,60.95c-14.81,13.9-22.13,29.39-24.79,36-5.68-7.58-12.37-17.13-18.73-27.77,6.03-2.64,22.53-8.86,43.52-8.23Z"/>
    <path class="cls-6" d="m206.85,70.39c.88,7.59.87,15.25-.02,22.84-7.22-1.7-14.75-2.59-22.49-2.59s-15.73.95-23.15,2.74c-.91-7.64-.92-15.35-.04-22.99v-.04s-.14-.07-.38-.18c4.98-8.23,9.79-17.13,13.81-26.3,6.37-14.5,10.77-29.67,10.77-43.87,0,14.2,4.4,29.37,10.77,43.87,3.86,8.8,8.45,17.36,13.21,25.31-1.61.72-2.47,1.17-2.47,1.17v.02s-.01.02-.01.02Z"/>
    <path class="cls-6" d="m160.77,70.17c-6.71,11.13-13.73,21.01-19.52,28.63-1.85-5.04-9.06-22.43-25.52-37.87,24.17-.58,42.26,7.86,45.04,9.24Z"/>
  </g>
  <polygon class="cls-1" points="206.97 151.57 163.73 151.57 142.1 189.02 163.73 226.47 206.97 226.47 228.59 189.02 206.97 151.57"/>
  <path class="cls-3" d="m324.98,113.78c-2.26,5.16-4.82,10.22-7.52,15.07-12.2,3.75-21.26,10.3-26.7,15.11,1.28,2.43,2.42,4.95,3.4,7.55-.28.24-.56.48-.82.71,1.27,2.42,2.41,4.93,3.39,7.51.06.13.1.25.14.38-.01.02-.02.03-.03.05-3.61,4.75-6.66,8.46-8.62,10.78-1.49,1.79-2.36,2.75-2.36,2.75,0-.78-.01-1.55-.04-2.32-.35-13.08-3.74-25.4-9.47-36.3-5.41-10.29-12.91-19.3-21.96-26.46h0v-.04s15.76-50.76,73.56-55.27c10.53,17.27,6.17,39.69-2.96,60.48Z"/>
  <path class="cls-3" d="m336.51,179.65c-6.34,6.11-13.21,11.68-19.83,16.54-3.88,2.85-7.67,5.46-11.22,7.79h-.01c-4.73,3.11-9.03,5.73-12.53,7.77-.5.29-.97.57-1.43.83-3.75,2.15-6.38,3.54-7.33,4.03,6.31-11.28,9.9-24.29,9.9-38.13,0-.73-.01-1.46-.03-2.18-.33-12.32-3.53-23.93-8.93-34.2,8.28-7.33,24.01-18.21,45.82-20.06,9.25-.78,19.6.07,30.95,3.5,3.48,19.61-9.23,38.59-25.36,54.11Z"/>
  <path class="cls-3" d="m262.13,261.93c6.67-.67,88.85-9.76,97.41-51.47-7.62-6.06-15.25-10.08-22.62-12.63-14.02-4.87-27.06-4.41-37.1-2.47-.71.14-1.39.28-2.07.43.04.67.06,1.33.08,2,.34,12.74-2.65,24.79-8.18,35.32-6.28,11.97-15.85,21.99-27.52,28.82Z"/>
  <path class="cls-3" d="m114.15,108.57v.03s-.02,0-.02,0c-9.04,7.16-16.54,16.17-21.96,26.47-5.73,10.9-9.12,23.22-9.47,36.3-.03.77-.03,1.54-.03,2.31,0,0-.87-.96-2.36-2.74-6.59-7.8-25.38-31.22-36.76-57.16-9.13-20.79-13.49-43.21-2.96-60.48,57.8,4.51,73.56,55.27,73.56,55.27Z"/>
  <path class="cls-3" d="m84.37,216.61c-3.6-1.86-30.97-16.37-52.36-36.96-16.13-15.52-28.84-34.5-25.35-54.11,11.34-3.43,21.69-4.27,30.95-3.49,21.81,1.85,37.53,12.73,45.82,20.06-5.4,10.27-8.59,21.88-8.93,34.2-.02.72-.03,1.45-.03,2.18,0,13.84,3.6,26.85,9.9,38.13Z"/>
  <path class="cls-3" d="m106.39,261.93c-6.67-.67-88.85-9.76-97.41-51.47,7.62-6.06,15.25-10.08,22.62-12.63,14.02-4.87,27.06-4.41,37.1-2.47.71.14,1.39.28,2.07.43-.04.67-.06,1.33-.08,2-.34,12.74,2.65,24.79,8.18,35.32,6.28,11.97,15.85,21.99,27.52,28.82Z"/>
  <circle class="cls-5" cx="185.35" cy="189.02" r="82.88"/>
  <path class="cls-1" d="m329.1,66.32c-43.36,3.99-59.96,37.09-63.95,46.92-1.88-1.85-3.87-3.61-5.94-5.25h-.01s0-.03,0-.03c0,0,14.2-45.71,66.25-49.78,1.58,2.6,2.79,5.32,3.66,8.14Z"/>
  <path class="cls-1" d="m359.5,136.88c-9.27-2.54-17.77-3.14-25.41-2.5-9.21.78-17.19,3.37-23.84,6.57,2.44-3.83,4.88-7.89,7.21-12.1,4.3-1.32,8.99-2.29,14.04-2.72,8.23-.7,17.44.05,27.53,3.1.46,2.56.6,5.11.47,7.65Z"/>
  <path class="cls-1" d="m355.31,212.34c-.56,2.71-1.42,5.28-2.56,7.72-7.45-5.85-14.93-9.77-22.14-12.27-8.97-3.11-17.52-4.05-25.15-3.81,3.55-2.33,7.34-4.94,11.22-7.79,5.1.5,10.48,1.59,16.02,3.52,7.36,2.55,15,6.57,22.61,12.63Z"/>
  <path class="cls-1" d="m106.94,107.32v.02s-.01,0-.01,0c-2.28,1.81-4.44,3.74-6.47,5.81-2.65-7.1-17.6-41.41-60.25-46.07.82-2.56,1.93-5.02,3.37-7.38,49.78,3.88,63.36,47.61,63.36,47.61Z"/>
  <path class="cls-1" d="m9.03,136.88c9.27-2.54,17.77-3.14,25.41-2.5,9.21.78,17.19,3.37,23.84,6.57-2.44-3.83-4.88-7.89-7.21-12.1-4.3-1.32-8.99-2.29-14.04-2.72-8.23-.7-17.44.05-27.53,3.1-.46,2.56-.6,5.11-.47,7.65Z"/>
  <path class="cls-1" d="m12.98,212.34c.56,2.71,1.42,5.28,2.56,7.72,7.45-5.85,14.93-9.77,22.14-12.27,8.97-3.11,17.52-4.05,25.15-3.81-3.55-2.33-7.34-4.94-11.22-7.79-5.1.5-10.48,1.59-16.02,3.52-7.36,2.55-15,6.57-22.61,12.63Z"/>
  <polygon class="cls-4" points="203.64 157.33 167.05 157.33 148.76 189.02 167.05 220.71 203.64 220.71 221.94 189.02 203.64 157.33"/>
  <line class="cls-5" x1="198.86" y1="165.62" x2="185.35" y2="189.02"/>
  <line class="cls-5" x1="203.65" y1="157.33" x2="201.55" y2="160.96"/>
  <polygon class="cls-2" points="211.61 178.72 207.02 180.52 204.98 176.79 198.86 165.62 201.55 160.96 209.07 174.24 211.61 178.72"/>
  <polygon class="cls-2" points="217.45 189.02 211.68 189.02 208.98 184.08 214.05 183.02 217.45 189.02"/>
  <polyline class="cls-5" points="218 182.2 214.05 183.02 208.98 184.08 205.68 184.77 202.11 185.52 185.35 189.02"/>
  <polyline class="cls-5" points="185.35 189.02 200.73 182.99 203.95 181.73 207.02 180.52 211.61 178.72 215.19 177.32"/>
  <line class="cls-5" x1="212.26" y1="172.25" x2="185.35" y2="189.02"/>
  <polygon class="cls-1" points="190.04 65.28 180.65 65.28 175.96 73.41 180.65 81.55 190.04 81.55 194.74 73.41 190.04 65.28"/>
  <polygon class="cls-2" points="193.3 73.41 185.35 73.41 189.33 66.53 193.3 73.41"/>
  <polygon class="cls-4" points="193.3 73.41 189.33 80.29 181.38 80.29 177.41 73.41 181.38 66.53 189.33 66.53 185.35 73.41 193.3 73.41"/>
  <path class="cls-1" d="m249.26,198.63l9.9,1.48c-2.98,20.07-13.96,37.53-29.59,49.04,12.23-13.29,19.69-31.03,19.69-50.51h0Z"/>
  <path class="cls-1" d="m248.64,189.02c-4.72-36.67-36.06-65.01-74.02-65.01-16.56,0-31.87,5.39-44.25,14.53,13.64-14.85,33.22-24.16,54.98-24.16,41.22,0,74.64,33.42,74.64,74.64h-11.35Z"/>
  <polyline class="cls-5" points="184.91 189.02 249.26 198.63 259.16 200.11 267.32 201.33"/>
</svg>