<?xml version="1.0" encoding="UTF-8"?>
<svg id="Layer_1" data-name="Layer 1" xmlns="http://www.w3.org/2000/svg" viewBox="0 0 1595.19213 466.54705">
  <defs>
    <style>
      .cls-1 {
        fill: #94b496;
      }

      .cls-1, .cls-2, .cls-3, .cls-4 {
        stroke-width: 0px;
      }

      .cls-2, .cls-5 {
        fill: #47c6e3;
      }

      .cls-5 {
        font-family: TimesNewRomanPS-BoldMT, 'Times New Roman';
        font-size: 176px;
        font-weight: 700;
        letter-spacing: .104em;
      }

      .cls-3 {
        fill: #0093c9;
      }

      .cls-4 {
        fill: #6393cd;
      }
    </style>
  </defs>
  <path class="cls-1" d="m558.13072,255.91704c-.01001.07001-.01001.13995-.02002.20996-.51001,5.05005-1.17999,10.04004-2,14.99005-.81,4.90997-1.78003,9.76996-2.90002,14.57996-17.66998,40.67999-113.56,71.76001-229.19,71.76001-115.44995,0-211.22998-30.98999-229.10999-71.58002,0-.00995,0-.01996-.01001-.02997-1.13-4.91003-2.12-9.88-2.95996-14.91003-.81-4.92999-1.47003-9.91998-1.97003-14.94995,11.95001,42.01996,112.17999,74.81995,234.07001,74.81995,121.95001,0,222.23999-32.82996,234.09003-74.88995Z"/>
  <path class="cls-2" d="m553.21067,284.69701c-1.38995,5.98004-3,11.87-4.83997,17.66003v.01001c-.10999.37-.22998.72998-.35004,1.09998-30.46997,94.62-119.22998,163.08002-223.97998,163.08002s-193.51001-68.46002-223.97998-163.08002c-.12-.37-.23999-.72998-.35004-1.09998v-.01001c-1.81995-5.73004-3.41998-11.56-4.79999-17.48004,17.88,40.59003,113.66003,71.58002,229.10999,71.58002,115.63,0,211.52002-31.08002,229.19-71.76001Z"/>
  <path class="cls-3" d="m559.3007,233.28704c0,3.78998-.09003,7.56-.27002,11.29999-.16998,3.63-.41998,7.25-.76001,10.84003-.03998.5-.09998.98999-.13995,1.48999-11.85004,42.06-112.14001,74.88995-234.09003,74.88995-121.89001,0-222.12-32.79999-234.07001-74.81995-.01996-.12-.02997-.25-.03998-.37-.01001-.02002-.02002-.04004-.01001-.06006-.02002-.19995-.03998-.38995-.06-.58997-.35999-3.76001-.63-7.54999-.81-11.35999-.17999-3.75-.27002-7.53003-.27002-11.32001,0-4.88.15002-9.72003.44-14.53003,7.46002,46.47003,109.54999,83.28003,234.39001,83.28003,129.69,0,234.83002-39.73004,234.83002-88.73999,0-.13,0-.27002-.01001-.40002.01001.03003.01001.04999.01001.08002.01996.33997.04999.67999.07996,1.02997.52002,6.36005.78003,12.79004.78003,19.28003Z"/>
  <path class="cls-2" d="m553.25587,185.26001c0,8.12-2.56,16-7.38,23.50995h-.01001c-25.66998,40.03003-115.35999,69.58002-222.06,69.58002-111.56,0-204.52997-32.28998-225.16998-75.10999-1.94-4-3.23999-8.09003-3.85999-12.26001.08997-1.58002.20001-3.14996.32001-4.72998.03998-.52002.07001-1.04999.12-1.57001.19-2.26001.39996-4.51001.64001-6.75,0-.01001,0-.02002.00995-.03003.44-1.78998.91003-3.56995,1.40002-5.33997,2.59003-9.39001,5.75-18.54004,9.42999-27.41003,6.79004-16.39996,15.40002-31.85999,25.57001-46.13995C174.89589,39.08997,244.92592,0,324.07588,0c78.65002,0,148.28003,38.58997,190.98999,97.87,10.79999,14.96997,19.87,31.25,26.92999,48.57001,4.24005,10.37,7.75,21.10999,10.47003,32.15997.17999.66998.33997,1.34003.5,2.01001.01001.01001.01001.02002.01001.03003.16998,1.38995.26001,2.79999.26996,4.19995.01001.13.01001.28003.01001.42004Z"/>
  <path class="cls-4" d="m558.44071,214.29705c0,49.00995-105.14001,88.73999-234.83002,88.73999-124.84003,0-226.92999-36.81-234.39001-83.28003.09003-1.51001.20001-3.01001.32001-4.51001.03998-.5.08002-1,.13-1.5.34003-3.87994.77002-7.73999,1.28998-11.56,1.17004-8.56,2.80005-16.97998,4.86005-25.21997-.24005,2.23999-.45001,4.48999-.64001,6.75-.04999.52002-.08002,1.04999-.12,1.57001-.12,1.58002-.23004,3.14996-.32001,4.72998.62,4.16998,1.91998,8.26001,3.85999,12.26001,20.64001,42.82001,113.60999,75.10999,225.16998,75.10999,106.70001,0,196.39001-29.54999,222.06-69.58002h.01001c4.82001-7.50995,7.38-15.38995,7.38-23.50995,0-.14001,0-.29004-.01001-.42004-.00995-1.39996-.09998-2.81-.26996-4.19995,2.17999,9.22998,3.83997,18.66998,4.90997,28.27997.22003,1.97003.41003,3.95001.58002,5.94.01001.13.01001.27002.01001.40002Z"/>
  <text class="cls-5" transform="translate(630.03466 176.96728)"><tspan x="0" y="0">Neptune</tspan><tspan x="0" y="211.19971">University</tspan></text>
</svg>