<?xml version="1.0" encoding="UTF-8"?>
<svg id="Layer_3" data-name="Layer 3" xmlns="http://www.w3.org/2000/svg" viewBox="0 0 348.4 255.13">
  <defs>
    <style>
      .cls-1 {
        fill: #00aeef;
      }

      .cls-1, .cls-2, .cls-3 {
        stroke-width: 0px;
      }

      .cls-2 {
        fill: none;
      }

      .cls-3 {
        fill: #8ed8f8;
      }
    </style>
  </defs>
  <circle class="cls-1" cx="175.21" cy="164.34" r="90.79"/>
  <path class="cls-1" d="m75.91,160.25c-.06,1.35-.09,2.72-.09,4.09,0,7.86.92,15.51,2.66,22.84-11.1-7.05-20.69-14.12-28.94-21.14C-34.84,94.25,19.95,26.99,20.94,25.8c-.33.93-11.76,35.18,79.55,73.25-14.52,16.45-23.63,37.77-24.58,61.2Z"/>
  <path class="cls-1" d="m90.97,216.92c-5.96.49-11.52.65-16.73.52C.34,215.61,0,156.46,0,156.46c0,0,6.26,17.66,49.54,9.58,7.17-1.34,15.37-3.39,24.72-6.34,0,0,.59.19,1.65.55-.06,1.35-.09,2.72-.09,4.09,0,7.86.92,15.51,2.66,22.84,1.93,8.18,4.88,15.96,8.71,23.2,1.17,2.24,2.43,4.42,3.78,6.54Z"/>
  <path class="cls-1" d="m111.62,240.43c-55.83,35.75-78.22-7.57-78.22-7.57,0,0,11.3,10.7,40.84-15.42,2.13-1.87,4.34-3.94,6.66-6.22,0,0,2.44-.38,6.29-.84,1.17,2.24,2.43,4.42,3.78,6.54,5.6,8.9,12.59,16.84,20.65,23.51Z"/>
  <path class="cls-1" d="m272.49,160.25c.06,1.35.09,2.72.09,4.09,0,7.86-.92,15.51-2.66,22.84,11.1-7.05,20.69-14.12,28.94-21.14,84.38-71.79,29.59-139.05,28.6-140.24.33.93,11.76,35.18-79.55,73.25,14.52,16.45,23.63,37.77,24.58,61.2Z"/>
  <path class="cls-1" d="m257.43,216.92c5.96.49,11.52.65,16.73.52,73.9-1.83,74.24-60.98,74.24-60.98,0,0-6.26,17.66-49.54,9.58-7.17-1.34-15.37-3.39-24.72-6.34,0,0-.59.19-1.65.55.06,1.35.09,2.72.09,4.09,0,7.86-.92,15.51-2.66,22.84-1.93,8.18-4.88,15.96-8.71,23.2-1.17,2.24-2.43,4.42-3.78,6.54Z"/>
  <path class="cls-1" d="m236.78,240.43c55.83,35.75,78.22-7.57,78.22-7.57,0,0-11.3,10.7-40.84-15.42-2.13-1.87-4.34-3.94-6.66-6.22,0,0-2.44-.38-6.29-.84-1.17,2.24-2.43,4.42-3.78,6.54-5.6,8.9-12.59,16.84-20.65,23.51Z"/>
  <path class="cls-1" d="m225.1,38.23l-26.35,30.34c-7.73-1.96-15.83-2.99-24.17-2.99s-15.7.94-23.12,2.73l-24.73-28.6,35.35,6.52L175.21,0l13.13,46.23,36.76-8Z"/>
  <path class="cls-3" d="m253.29,164.34c0,33.07-20.57,61.35-49.61,72.72,15.37-14.25,24.98-34.62,24.98-57.24,0-43.12-34.95-78.07-78.07-78.07-10.06,0-19.67,1.9-28.5,5.37,13.93-12.94,32.6-20.86,53.12-20.86,43.12,0,78.08,34.96,78.08,78.08Z"/>
  <path class="cls-3" d="m296.19,160.94c21.54-36.46,20.34-66.04,12.67-87.42,11.88-9.32,19.51-20.36,24.18-29.13,10.12,25.03,15.9,69.64-36.85,116.55Z"/>
  <path class="cls-3" d="m341.86,167.68c-3.65,12.53-12.87,30.38-36.11,40.08,13.54-11.68,18.37-26.45,20.09-35.41,7.52-.71,12.61-2.62,16.02-4.67Z"/>
  <path class="cls-3" d="m341.86,167.68c-3.65,12.53-12.87,30.38-36.11,40.08,13.54-11.68,18.37-26.45,20.09-35.41,7.52-.71,12.61-2.62,16.02-4.67Z"/>
  <path class="cls-3" d="m326.79,164.34v.03h-.01s.01-.03.01-.03Z"/>
  <polygon class="cls-3" points="225.1 38.23 193.54 57.4 188.34 46.23 225.1 38.23"/>
  <polygon class="cls-3" points="188.34 46.23 175.21 65.58 175.21 0 188.34 46.23"/>
  <polygon class="cls-3" points="175.21 65.58 156.71 57.4 126.73 39.71 162.08 46.23 175.21 65.58"/>
  <line class="cls-2" x1="162.08" y1="46.23" x2="151.46" y2="68.31"/>
  <polygon class="cls-3" points="193.54 57.4 175.21 65.58 188.34 46.23 193.54 57.4"/>
  <path class="cls-3" d="m90.42,102.53c-3.73,4.01-7.13,8.33-10.15,12.92-42.69-19.29-62.09-37.06-70.68-50.44,1.35-6.56,3.35-12.86,5.92-18.86,6.65,13.89,25.28,34.15,74.91,56.38Z"/>
</svg>