<?xml version="1.0" encoding="UTF-8"?>
<svg id="Layer_1" data-name="Layer 1" xmlns="http://www.w3.org/2000/svg" viewBox="0 0 279.19 207.23">
  <defs>
    <style>
      .cls-1 {
        fill: #a97c50;
      }

      .cls-1, .cls-2 {
        stroke-width: 0px;
      }

      .cls-2 {
        fill: #c49a6c;
      }
    </style>
  </defs>
  <circle class="cls-1" cx="139.78" cy="116.44" r="90.79"/>
  <path class="cls-1" d="m80.02,37.01h0c-5.6,4.22-10.73,9.02-15.32,14.3-9.62,11.08-16.82,24.31-20.8,38.87-.05.19-.11.37-.15.56,0,0-1.98-.77-4.74-2.78-8.74-6.37-25.24-25.13-10.82-70.91,14.91-47.36,51.22,18.85,51.83,19.96Z"/>
  <path class="cls-1" d="m43.75,90.74c-2.19,8.2-3.36,16.81-3.36,25.7s1.12,17.14,3.23,25.19c-5.86.65-28.98.4-41.94-40.82-9.55-30.42,24.05-18.54,37.33-12.85,2.46,1.05,4.23,1.89,4.89,2.22-.05.19-.11.37-.15.56Z"/>
  <path class="cls-1" d="m199.16,37.01h0c5.6,4.22,10.73,9.02,15.32,14.3,9.62,11.08,16.82,24.31,20.8,38.87.05.19.11.37.15.56,0,0,1.98-.77,4.74-2.78,8.74-6.37,25.24-25.13,10.82-70.91-14.91-47.36-51.22,18.85-51.83,19.96Z"/>
  <path class="cls-1" d="m235.43,90.74c2.19,8.2,3.36,16.81,3.36,25.7,0,8.7-1.12,17.14-3.23,25.19,5.86.65,28.98.4,41.94-40.82,9.55-30.42-24.05-18.54-37.33-12.85-2.46,1.05-4.23,1.89-4.89,2.22.05.19.11.37.15.56Z"/>
  <path class="cls-2" d="m223.75,116.44c0,4.57-.37,9.06-1.07,13.44-6.43,39.99-41.1,70.53-82.9,70.53-1.76,0-3.52-.05-5.25-.17,39.43-2.42,71.5-32.05,77.66-70.36.7-4.38,1.07-8.87,1.07-13.44,0-4.17-.3-8.26-.89-12.27-5.7-38.88-38.03-69.11-77.88-71.54.57-.04,1.14-.07,1.72-.09.81-.03,1.62-.05,2.43-.06.38-.01.76-.01,1.14-.01.8,0,1.61.01,2.4.03,41.13,1.16,74.85,31.88,80.68,71.67.59,4.01.89,8.1.89,12.27Z"/>
  <path class="cls-2" d="m248.26,73.89c3.53-10.37,4.35-25.61-2.59-47.64-10.85-34.47-34.01-3.66-43.53,11.32-.24-.2-.49-.38-.73-.57h0c.56-1.04,34.03-62.07,47.77-18.41,8.89,28.23,5.03,45.32-.92,55.29Z"/>
  <path class="cls-2" d="m275.32,100.45c-7.37,23.44-18.55,31.51-26.76,34.13,7.36-4.09,15.83-12.99,21.8-31.97,7.82-24.91-17.94-16.91-30.34-11.84.77-.35,1.84-.84,3.13-1.39,11.44-4.9,40.4-15.14,32.17,11.07Z"/>
  <path class="cls-2" d="m76.71,35.92h0c-1.5,1.14-2.97,2.31-4.39,3.55-2.48-4.42-22.87-39.77-37.25-31.24,14.96-20.96,41.15,26.8,41.64,27.69Z"/>
  <path class="cls-2" d="m40.61,91.21c-.04.17-.1.34-.13.51-.38,1.43-.73,2.87-1.05,4.32-.71-.34-2.21-1.04-4.21-1.9-9.28-3.98-29.55-11.3-34.24-1.67-.06-16.62,24.68-7.78,35.22-3.26,2.22.95,3.82,1.71,4.41,2Z"/>
</svg>